<svg width="135" height="49" viewBox="0 0 135 49" fill="none" xmlns="http://www.w3.org/2000/svg">
<path d="M11.2055 36.5H1.66184V34.6482H5.50781V5.11497H1.66184V3.2632H6.64736C9.43292 6.90342 12.2501 10.5911 15.099 14.3263C17.9479 18.0298 20.5435 21.3852 22.8859 24.3923C25.6082 20.8787 28.3146 17.3651 31.0052 13.8515C33.6958 10.3062 36.4022 6.77681 39.1245 3.2632H44.11V5.11497H40.264V34.6482H44.2524V36.5H34.7087V34.6482H38.3173V9.10338C38.3173 8.72353 38.3173 8.42282 38.3173 8.20124C38.3489 7.94801 38.3806 7.63147 38.4122 7.25162C38.159 7.59981 37.9374 7.90053 37.7475 8.15376C37.5576 8.40699 37.336 8.70771 37.0828 9.0559L22.8859 27.5735L8.26172 8.53361C8.07179 8.24872 7.91352 8.04297 7.78691 7.91635C7.69194 7.75808 7.5495 7.5365 7.35958 7.25162C7.39123 7.5365 7.40706 7.85305 7.40706 8.20124C7.43871 8.51778 7.45454 8.8185 7.45454 9.10338V34.6482H11.2055V36.5ZM56.8728 20.214C55.6699 20.214 54.562 20.4672 53.5491 20.9737C52.5678 21.4801 51.7448 22.1607 51.0801 23.0154C50.447 23.8384 50.0038 24.7722 49.7506 25.8167C49.4974 26.8297 49.4815 27.8743 49.7031 28.9505C51.8556 28.0958 53.9922 27.257 56.1131 26.434C58.2655 25.5793 60.418 24.7247 62.5705 23.87C62.0007 22.7938 61.2094 21.9233 60.1964 21.2586C59.2152 20.5622 58.1073 20.214 56.8728 20.214ZM63.0928 34.3633C62.2698 35.123 61.336 35.7245 60.2914 36.1676C59.2468 36.6108 58.1073 36.8324 56.8728 36.8324C55.5749 36.8324 54.3563 36.595 53.2167 36.1202C52.1088 35.6453 51.1275 34.9806 50.2729 34.1259C49.4182 33.2713 48.7535 32.29 48.2787 31.1821C47.8039 30.0742 47.5665 28.8714 47.5665 27.5735C47.5665 26.3074 47.8039 25.1045 48.2787 23.965C48.7535 22.8254 49.4182 21.8442 50.2729 21.0211C51.1275 20.1981 52.1088 19.5492 53.2167 19.0744C54.3563 18.568 55.5749 18.3147 56.8728 18.3147C57.854 18.3147 58.7878 18.4888 59.6741 18.837C60.5605 19.1536 61.3518 19.6284 62.0482 20.2615C62.7129 20.8312 63.2985 21.5276 63.805 22.3506C64.3115 23.142 64.723 24.0125 65.0395 24.9621C62.5705 25.9434 60.1015 26.9088 57.6325 27.8584C55.1951 28.8081 52.7419 29.7893 50.2729 30.8023C50.8427 32.0368 51.7131 33.0339 52.8843 33.7936C54.0555 34.5533 55.385 34.9331 56.8728 34.9331C57.854 34.9331 58.772 34.759 59.6267 34.4108C60.4813 34.0626 61.241 33.572 61.9058 32.9389L63.0928 34.3633ZM78.496 36.5H72.6558V20.5938H68.5249V18.6946H72.6558V7.10918H74.6025V18.6946H80.1103V20.5938H74.6025V34.6482H78.496V36.5ZM92.6194 36.5H83.4555V34.6482H87.159V20.5463H83.7404V18.6946H88.7259L88.8684 21.2111C88.9 21.7492 88.9158 22.0974 88.9158 22.2557C88.9158 22.4139 88.9317 22.7621 88.9633 23.3002C89.3115 22.5089 89.7547 21.8125 90.2928 21.2111C90.8626 20.578 91.4957 20.0557 92.192 19.6442C92.8568 19.2327 93.5373 18.9162 94.2337 18.6946C94.9618 18.473 95.6898 18.3464 96.4179 18.3147L96.3229 20.4989C95.3733 20.5305 94.4711 20.6888 93.6165 20.9737C92.7935 21.2586 92.0654 21.6701 91.4323 22.2082C90.7043 22.778 90.1345 23.4743 89.723 24.2973C89.3115 25.1204 89.1058 26.0225 89.1058 27.0038V34.6482H92.6194V36.5ZM108.895 36.5H99.7308V34.6482H103.387V20.5463H99.7308V18.6946H105.334V34.6482H108.895V36.5ZM105.951 12.3796C105.951 12.8227 105.793 13.2026 105.476 13.5191C105.159 13.804 104.795 13.9465 104.384 13.9465C104.004 13.9465 103.656 13.804 103.339 13.5191C103.023 13.2026 102.865 12.8227 102.865 12.3796C102.865 11.9364 103.023 11.5724 103.339 11.2875C103.656 10.971 104.004 10.8127 104.384 10.8127C104.795 10.8127 105.159 10.971 105.476 11.2875C105.793 11.5724 105.951 11.9364 105.951 12.3796ZM112.204 36.5V34.6482H115.717V2.74091H112.346V0.889145H117.664V27.4786L125.071 20.5463H122.175V18.6946H130.959V20.5463H127.493C126.543 21.496 125.657 22.3664 124.834 23.1578C124.042 23.9175 123.14 24.7722 122.127 25.7218C123.204 27.2412 124.28 28.7447 125.356 30.2325C126.432 31.6886 127.524 33.1605 128.632 34.6482H132.763V36.5H123.979V34.6482H126.306C125.356 33.3504 124.407 32.0843 123.457 30.8497C122.507 29.5836 121.589 28.3016 120.703 27.0038L117.664 29.9001V34.6482H121.368V36.5H112.204Z" fill="black"/>
<path d="M8 3L23 22L26 18L11.5 0L8 3Z" fill="#576AE7"/>
<path d="M16.5 4.5L26.5 17L29.5 13L19.5 1L16.5 4.5Z" fill="#576AE7"/>
<path d="M23 3.5L30 12.5C31.1716 11.1332 31.8284 9.86683 33 8.5L26 0.5L23 3.5Z" fill="#576AE7"/>
</svg>
